<mxfile host="Electron" agent="Mozilla/5.0 (Windows NT 10.0; Win64; x64) AppleWebKit/537.36 (KHTML, like Gecko) draw.io/27.0.2 Chrome/134.0.6998.205 Electron/35.3.0 Safari/537.36" version="27.0.2">
  <diagram name="Seite-1" id="cjZjgAnnB-NVIbWVg8PO">
    <mxGraphModel dx="953" dy="658" grid="1" gridSize="10" guides="1" tooltips="1" connect="1" arrows="1" fold="1" page="1" pageScale="1" pageWidth="827" pageHeight="1169" math="0" shadow="0">
      <root>
        <mxCell id="0" />
        <mxCell id="1" parent="0" />
        <mxCell id="84cJ1SRd2D3YclpRH83m-101" value="users" style="shape=table;startSize=25;container=1;collapsible=0;childLayout=tableLayout;fixedRows=1;rowLines=1;fontStyle=1;align=center;resizeLast=1;" vertex="1" parent="1">
          <mxGeometry x="20" y="414" width="197" height="214" as="geometry" />
        </mxCell>
        <mxCell id="84cJ1SRd2D3YclpRH83m-102" style="shape=tableRow;horizontal=0;startSize=0;swimlaneHead=0;swimlaneBody=0;fillColor=none;collapsible=0;dropTarget=0;points=[[0,0.5],[1,0.5]];portConstraint=eastwest;top=0;left=0;right=0;bottom=0;" vertex="1" parent="84cJ1SRd2D3YclpRH83m-101">
          <mxGeometry y="25" width="197" height="47" as="geometry" />
        </mxCell>
        <mxCell id="84cJ1SRd2D3YclpRH83m-103" value="int" style="shape=partialRectangle;connectable=0;fillColor=none;top=0;left=0;bottom=0;right=0;align=left;spacingLeft=2;overflow=hidden;fontSize=11;" vertex="1" parent="84cJ1SRd2D3YclpRH83m-102">
          <mxGeometry width="36" height="47" as="geometry">
            <mxRectangle width="36" height="47" as="alternateBounds" />
          </mxGeometry>
        </mxCell>
        <mxCell id="84cJ1SRd2D3YclpRH83m-104" value="id" style="shape=partialRectangle;connectable=0;fillColor=none;top=0;left=0;bottom=0;right=0;align=left;spacingLeft=2;overflow=hidden;fontSize=11;" vertex="1" parent="84cJ1SRd2D3YclpRH83m-102">
          <mxGeometry x="36" width="139" height="47" as="geometry">
            <mxRectangle width="139" height="47" as="alternateBounds" />
          </mxGeometry>
        </mxCell>
        <mxCell id="84cJ1SRd2D3YclpRH83m-105" value="PK" style="shape=partialRectangle;connectable=0;fillColor=none;top=0;left=0;bottom=0;right=0;align=left;spacingLeft=2;overflow=hidden;fontSize=11;" vertex="1" parent="84cJ1SRd2D3YclpRH83m-102">
          <mxGeometry x="175" width="22" height="47" as="geometry">
            <mxRectangle width="22" height="47" as="alternateBounds" />
          </mxGeometry>
        </mxCell>
        <mxCell id="84cJ1SRd2D3YclpRH83m-106" style="shape=tableRow;horizontal=0;startSize=0;swimlaneHead=0;swimlaneBody=0;fillColor=none;collapsible=0;dropTarget=0;points=[[0,0.5],[1,0.5]];portConstraint=eastwest;top=0;left=0;right=0;bottom=0;" vertex="1" parent="84cJ1SRd2D3YclpRH83m-101">
          <mxGeometry y="72" width="197" height="47" as="geometry" />
        </mxCell>
        <mxCell id="84cJ1SRd2D3YclpRH83m-107" value="string" style="shape=partialRectangle;connectable=0;fillColor=none;top=0;left=0;bottom=0;right=0;align=left;spacingLeft=2;overflow=hidden;fontSize=11;" vertex="1" parent="84cJ1SRd2D3YclpRH83m-106">
          <mxGeometry width="36" height="47" as="geometry">
            <mxRectangle width="36" height="47" as="alternateBounds" />
          </mxGeometry>
        </mxCell>
        <mxCell id="84cJ1SRd2D3YclpRH83m-108" value="name" style="shape=partialRectangle;connectable=0;fillColor=none;top=0;left=0;bottom=0;right=0;align=left;spacingLeft=2;overflow=hidden;fontSize=11;" vertex="1" parent="84cJ1SRd2D3YclpRH83m-106">
          <mxGeometry x="36" width="139" height="47" as="geometry">
            <mxRectangle width="139" height="47" as="alternateBounds" />
          </mxGeometry>
        </mxCell>
        <mxCell id="84cJ1SRd2D3YclpRH83m-109" value="" style="shape=partialRectangle;connectable=0;fillColor=none;top=0;left=0;bottom=0;right=0;align=left;spacingLeft=2;overflow=hidden;fontSize=11;" vertex="1" parent="84cJ1SRd2D3YclpRH83m-106">
          <mxGeometry x="175" width="22" height="47" as="geometry">
            <mxRectangle width="22" height="47" as="alternateBounds" />
          </mxGeometry>
        </mxCell>
        <mxCell id="84cJ1SRd2D3YclpRH83m-110" style="shape=tableRow;horizontal=0;startSize=0;swimlaneHead=0;swimlaneBody=0;fillColor=none;collapsible=0;dropTarget=0;points=[[0,0.5],[1,0.5]];portConstraint=eastwest;top=0;left=0;right=0;bottom=0;" vertex="1" parent="84cJ1SRd2D3YclpRH83m-101">
          <mxGeometry y="119" width="197" height="47" as="geometry" />
        </mxCell>
        <mxCell id="84cJ1SRd2D3YclpRH83m-111" value="string" style="shape=partialRectangle;connectable=0;fillColor=none;top=0;left=0;bottom=0;right=0;align=left;spacingLeft=2;overflow=hidden;fontSize=11;" vertex="1" parent="84cJ1SRd2D3YclpRH83m-110">
          <mxGeometry width="36" height="47" as="geometry">
            <mxRectangle width="36" height="47" as="alternateBounds" />
          </mxGeometry>
        </mxCell>
        <mxCell id="84cJ1SRd2D3YclpRH83m-112" value="email" style="shape=partialRectangle;connectable=0;fillColor=none;top=0;left=0;bottom=0;right=0;align=left;spacingLeft=2;overflow=hidden;fontSize=11;" vertex="1" parent="84cJ1SRd2D3YclpRH83m-110">
          <mxGeometry x="36" width="139" height="47" as="geometry">
            <mxRectangle width="139" height="47" as="alternateBounds" />
          </mxGeometry>
        </mxCell>
        <mxCell id="84cJ1SRd2D3YclpRH83m-113" value="" style="shape=partialRectangle;connectable=0;fillColor=none;top=0;left=0;bottom=0;right=0;align=left;spacingLeft=2;overflow=hidden;fontSize=11;" vertex="1" parent="84cJ1SRd2D3YclpRH83m-110">
          <mxGeometry x="175" width="22" height="47" as="geometry">
            <mxRectangle width="22" height="47" as="alternateBounds" />
          </mxGeometry>
        </mxCell>
        <mxCell id="84cJ1SRd2D3YclpRH83m-114" style="shape=tableRow;horizontal=0;startSize=0;swimlaneHead=0;swimlaneBody=0;fillColor=none;collapsible=0;dropTarget=0;points=[[0,0.5],[1,0.5]];portConstraint=eastwest;top=0;left=0;right=0;bottom=0;" vertex="1" parent="84cJ1SRd2D3YclpRH83m-101">
          <mxGeometry y="166" width="197" height="47" as="geometry" />
        </mxCell>
        <mxCell id="84cJ1SRd2D3YclpRH83m-115" value="string" style="shape=partialRectangle;connectable=0;fillColor=none;top=0;left=0;bottom=0;right=0;align=left;spacingLeft=2;overflow=hidden;fontSize=11;" vertex="1" parent="84cJ1SRd2D3YclpRH83m-114">
          <mxGeometry width="36" height="47" as="geometry">
            <mxRectangle width="36" height="47" as="alternateBounds" />
          </mxGeometry>
        </mxCell>
        <mxCell id="84cJ1SRd2D3YclpRH83m-116" value="passwort" style="shape=partialRectangle;connectable=0;fillColor=none;top=0;left=0;bottom=0;right=0;align=left;spacingLeft=2;overflow=hidden;fontSize=11;" vertex="1" parent="84cJ1SRd2D3YclpRH83m-114">
          <mxGeometry x="36" width="139" height="47" as="geometry">
            <mxRectangle width="139" height="47" as="alternateBounds" />
          </mxGeometry>
        </mxCell>
        <mxCell id="84cJ1SRd2D3YclpRH83m-117" value="" style="shape=partialRectangle;connectable=0;fillColor=none;top=0;left=0;bottom=0;right=0;align=left;spacingLeft=2;overflow=hidden;fontSize=11;" vertex="1" parent="84cJ1SRd2D3YclpRH83m-114">
          <mxGeometry x="175" width="22" height="47" as="geometry">
            <mxRectangle width="22" height="47" as="alternateBounds" />
          </mxGeometry>
        </mxCell>
        <mxCell id="84cJ1SRd2D3YclpRH83m-118" value="reservations" style="shape=table;startSize=25;container=1;collapsible=0;childLayout=tableLayout;fixedRows=1;rowLines=1;fontStyle=1;align=center;resizeLast=1;" vertex="1" parent="1">
          <mxGeometry x="182" y="794" width="243" height="469" as="geometry" />
        </mxCell>
        <mxCell id="84cJ1SRd2D3YclpRH83m-119" style="shape=tableRow;horizontal=0;startSize=0;swimlaneHead=0;swimlaneBody=0;fillColor=none;collapsible=0;dropTarget=0;points=[[0,0.5],[1,0.5]];portConstraint=eastwest;top=0;left=0;right=0;bottom=0;" vertex="1" parent="84cJ1SRd2D3YclpRH83m-118">
          <mxGeometry y="25" width="243" height="44" as="geometry" />
        </mxCell>
        <mxCell id="84cJ1SRd2D3YclpRH83m-120" value="int" style="shape=partialRectangle;connectable=0;fillColor=none;top=0;left=0;bottom=0;right=0;align=left;spacingLeft=2;overflow=hidden;fontSize=11;" vertex="1" parent="84cJ1SRd2D3YclpRH83m-119">
          <mxGeometry width="48" height="44" as="geometry">
            <mxRectangle width="48" height="44" as="alternateBounds" />
          </mxGeometry>
        </mxCell>
        <mxCell id="84cJ1SRd2D3YclpRH83m-121" value="id" style="shape=partialRectangle;connectable=0;fillColor=none;top=0;left=0;bottom=0;right=0;align=left;spacingLeft=2;overflow=hidden;fontSize=11;" vertex="1" parent="84cJ1SRd2D3YclpRH83m-119">
          <mxGeometry x="48" width="173" height="44" as="geometry">
            <mxRectangle width="173" height="44" as="alternateBounds" />
          </mxGeometry>
        </mxCell>
        <mxCell id="84cJ1SRd2D3YclpRH83m-122" value="PK" style="shape=partialRectangle;connectable=0;fillColor=none;top=0;left=0;bottom=0;right=0;align=left;spacingLeft=2;overflow=hidden;fontSize=11;" vertex="1" parent="84cJ1SRd2D3YclpRH83m-119">
          <mxGeometry x="221" width="22" height="44" as="geometry">
            <mxRectangle width="22" height="44" as="alternateBounds" />
          </mxGeometry>
        </mxCell>
        <mxCell id="84cJ1SRd2D3YclpRH83m-123" style="shape=tableRow;horizontal=0;startSize=0;swimlaneHead=0;swimlaneBody=0;fillColor=none;collapsible=0;dropTarget=0;points=[[0,0.5],[1,0.5]];portConstraint=eastwest;top=0;left=0;right=0;bottom=0;" vertex="1" parent="84cJ1SRd2D3YclpRH83m-118">
          <mxGeometry y="69" width="243" height="44" as="geometry" />
        </mxCell>
        <mxCell id="84cJ1SRd2D3YclpRH83m-124" value="int" style="shape=partialRectangle;connectable=0;fillColor=none;top=0;left=0;bottom=0;right=0;align=left;spacingLeft=2;overflow=hidden;fontSize=11;" vertex="1" parent="84cJ1SRd2D3YclpRH83m-123">
          <mxGeometry width="48" height="44" as="geometry">
            <mxRectangle width="48" height="44" as="alternateBounds" />
          </mxGeometry>
        </mxCell>
        <mxCell id="84cJ1SRd2D3YclpRH83m-125" value="user_id" style="shape=partialRectangle;connectable=0;fillColor=none;top=0;left=0;bottom=0;right=0;align=left;spacingLeft=2;overflow=hidden;fontSize=11;" vertex="1" parent="84cJ1SRd2D3YclpRH83m-123">
          <mxGeometry x="48" width="173" height="44" as="geometry">
            <mxRectangle width="173" height="44" as="alternateBounds" />
          </mxGeometry>
        </mxCell>
        <mxCell id="84cJ1SRd2D3YclpRH83m-126" value="FK" style="shape=partialRectangle;connectable=0;fillColor=none;top=0;left=0;bottom=0;right=0;align=left;spacingLeft=2;overflow=hidden;fontSize=11;" vertex="1" parent="84cJ1SRd2D3YclpRH83m-123">
          <mxGeometry x="221" width="22" height="44" as="geometry">
            <mxRectangle width="22" height="44" as="alternateBounds" />
          </mxGeometry>
        </mxCell>
        <mxCell id="84cJ1SRd2D3YclpRH83m-127" style="shape=tableRow;horizontal=0;startSize=0;swimlaneHead=0;swimlaneBody=0;fillColor=none;collapsible=0;dropTarget=0;points=[[0,0.5],[1,0.5]];portConstraint=eastwest;top=0;left=0;right=0;bottom=0;" vertex="1" parent="84cJ1SRd2D3YclpRH83m-118">
          <mxGeometry y="113" width="243" height="44" as="geometry" />
        </mxCell>
        <mxCell id="84cJ1SRd2D3YclpRH83m-128" value="int" style="shape=partialRectangle;connectable=0;fillColor=none;top=0;left=0;bottom=0;right=0;align=left;spacingLeft=2;overflow=hidden;fontSize=11;" vertex="1" parent="84cJ1SRd2D3YclpRH83m-127">
          <mxGeometry width="48" height="44" as="geometry">
            <mxRectangle width="48" height="44" as="alternateBounds" />
          </mxGeometry>
        </mxCell>
        <mxCell id="84cJ1SRd2D3YclpRH83m-129" value="room_id" style="shape=partialRectangle;connectable=0;fillColor=none;top=0;left=0;bottom=0;right=0;align=left;spacingLeft=2;overflow=hidden;fontSize=11;" vertex="1" parent="84cJ1SRd2D3YclpRH83m-127">
          <mxGeometry x="48" width="173" height="44" as="geometry">
            <mxRectangle width="173" height="44" as="alternateBounds" />
          </mxGeometry>
        </mxCell>
        <mxCell id="84cJ1SRd2D3YclpRH83m-130" value="FK" style="shape=partialRectangle;connectable=0;fillColor=none;top=0;left=0;bottom=0;right=0;align=left;spacingLeft=2;overflow=hidden;fontSize=11;" vertex="1" parent="84cJ1SRd2D3YclpRH83m-127">
          <mxGeometry x="221" width="22" height="44" as="geometry">
            <mxRectangle width="22" height="44" as="alternateBounds" />
          </mxGeometry>
        </mxCell>
        <mxCell id="84cJ1SRd2D3YclpRH83m-131" style="shape=tableRow;horizontal=0;startSize=0;swimlaneHead=0;swimlaneBody=0;fillColor=none;collapsible=0;dropTarget=0;points=[[0,0.5],[1,0.5]];portConstraint=eastwest;top=0;left=0;right=0;bottom=0;" vertex="1" parent="84cJ1SRd2D3YclpRH83m-118">
          <mxGeometry y="157" width="243" height="44" as="geometry" />
        </mxCell>
        <mxCell id="84cJ1SRd2D3YclpRH83m-132" value="date" style="shape=partialRectangle;connectable=0;fillColor=none;top=0;left=0;bottom=0;right=0;align=left;spacingLeft=2;overflow=hidden;fontSize=11;" vertex="1" parent="84cJ1SRd2D3YclpRH83m-131">
          <mxGeometry width="48" height="44" as="geometry">
            <mxRectangle width="48" height="44" as="alternateBounds" />
          </mxGeometry>
        </mxCell>
        <mxCell id="84cJ1SRd2D3YclpRH83m-133" value="datum" style="shape=partialRectangle;connectable=0;fillColor=none;top=0;left=0;bottom=0;right=0;align=left;spacingLeft=2;overflow=hidden;fontSize=11;" vertex="1" parent="84cJ1SRd2D3YclpRH83m-131">
          <mxGeometry x="48" width="173" height="44" as="geometry">
            <mxRectangle width="173" height="44" as="alternateBounds" />
          </mxGeometry>
        </mxCell>
        <mxCell id="84cJ1SRd2D3YclpRH83m-134" value="" style="shape=partialRectangle;connectable=0;fillColor=none;top=0;left=0;bottom=0;right=0;align=left;spacingLeft=2;overflow=hidden;fontSize=11;" vertex="1" parent="84cJ1SRd2D3YclpRH83m-131">
          <mxGeometry x="221" width="22" height="44" as="geometry">
            <mxRectangle width="22" height="44" as="alternateBounds" />
          </mxGeometry>
        </mxCell>
        <mxCell id="84cJ1SRd2D3YclpRH83m-135" style="shape=tableRow;horizontal=0;startSize=0;swimlaneHead=0;swimlaneBody=0;fillColor=none;collapsible=0;dropTarget=0;points=[[0,0.5],[1,0.5]];portConstraint=eastwest;top=0;left=0;right=0;bottom=0;" vertex="1" parent="84cJ1SRd2D3YclpRH83m-118">
          <mxGeometry y="201" width="243" height="44" as="geometry" />
        </mxCell>
        <mxCell id="84cJ1SRd2D3YclpRH83m-136" value="time" style="shape=partialRectangle;connectable=0;fillColor=none;top=0;left=0;bottom=0;right=0;align=left;spacingLeft=2;overflow=hidden;fontSize=11;" vertex="1" parent="84cJ1SRd2D3YclpRH83m-135">
          <mxGeometry width="48" height="44" as="geometry">
            <mxRectangle width="48" height="44" as="alternateBounds" />
          </mxGeometry>
        </mxCell>
        <mxCell id="84cJ1SRd2D3YclpRH83m-137" value="zeit_von" style="shape=partialRectangle;connectable=0;fillColor=none;top=0;left=0;bottom=0;right=0;align=left;spacingLeft=2;overflow=hidden;fontSize=11;" vertex="1" parent="84cJ1SRd2D3YclpRH83m-135">
          <mxGeometry x="48" width="173" height="44" as="geometry">
            <mxRectangle width="173" height="44" as="alternateBounds" />
          </mxGeometry>
        </mxCell>
        <mxCell id="84cJ1SRd2D3YclpRH83m-138" value="" style="shape=partialRectangle;connectable=0;fillColor=none;top=0;left=0;bottom=0;right=0;align=left;spacingLeft=2;overflow=hidden;fontSize=11;" vertex="1" parent="84cJ1SRd2D3YclpRH83m-135">
          <mxGeometry x="221" width="22" height="44" as="geometry">
            <mxRectangle width="22" height="44" as="alternateBounds" />
          </mxGeometry>
        </mxCell>
        <mxCell id="84cJ1SRd2D3YclpRH83m-139" style="shape=tableRow;horizontal=0;startSize=0;swimlaneHead=0;swimlaneBody=0;fillColor=none;collapsible=0;dropTarget=0;points=[[0,0.5],[1,0.5]];portConstraint=eastwest;top=0;left=0;right=0;bottom=0;" vertex="1" parent="84cJ1SRd2D3YclpRH83m-118">
          <mxGeometry y="245" width="243" height="44" as="geometry" />
        </mxCell>
        <mxCell id="84cJ1SRd2D3YclpRH83m-140" value="time" style="shape=partialRectangle;connectable=0;fillColor=none;top=0;left=0;bottom=0;right=0;align=left;spacingLeft=2;overflow=hidden;fontSize=11;" vertex="1" parent="84cJ1SRd2D3YclpRH83m-139">
          <mxGeometry width="48" height="44" as="geometry">
            <mxRectangle width="48" height="44" as="alternateBounds" />
          </mxGeometry>
        </mxCell>
        <mxCell id="84cJ1SRd2D3YclpRH83m-141" value="zeit_bis" style="shape=partialRectangle;connectable=0;fillColor=none;top=0;left=0;bottom=0;right=0;align=left;spacingLeft=2;overflow=hidden;fontSize=11;" vertex="1" parent="84cJ1SRd2D3YclpRH83m-139">
          <mxGeometry x="48" width="173" height="44" as="geometry">
            <mxRectangle width="173" height="44" as="alternateBounds" />
          </mxGeometry>
        </mxCell>
        <mxCell id="84cJ1SRd2D3YclpRH83m-142" value="" style="shape=partialRectangle;connectable=0;fillColor=none;top=0;left=0;bottom=0;right=0;align=left;spacingLeft=2;overflow=hidden;fontSize=11;" vertex="1" parent="84cJ1SRd2D3YclpRH83m-139">
          <mxGeometry x="221" width="22" height="44" as="geometry">
            <mxRectangle width="22" height="44" as="alternateBounds" />
          </mxGeometry>
        </mxCell>
        <mxCell id="84cJ1SRd2D3YclpRH83m-143" style="shape=tableRow;horizontal=0;startSize=0;swimlaneHead=0;swimlaneBody=0;fillColor=none;collapsible=0;dropTarget=0;points=[[0,0.5],[1,0.5]];portConstraint=eastwest;top=0;left=0;right=0;bottom=0;" vertex="1" parent="84cJ1SRd2D3YclpRH83m-118">
          <mxGeometry y="289" width="243" height="44" as="geometry" />
        </mxCell>
        <mxCell id="84cJ1SRd2D3YclpRH83m-144" value="string" style="shape=partialRectangle;connectable=0;fillColor=none;top=0;left=0;bottom=0;right=0;align=left;spacingLeft=2;overflow=hidden;fontSize=11;" vertex="1" parent="84cJ1SRd2D3YclpRH83m-143">
          <mxGeometry width="48" height="44" as="geometry">
            <mxRectangle width="48" height="44" as="alternateBounds" />
          </mxGeometry>
        </mxCell>
        <mxCell id="84cJ1SRd2D3YclpRH83m-145" value="bemerkung" style="shape=partialRectangle;connectable=0;fillColor=none;top=0;left=0;bottom=0;right=0;align=left;spacingLeft=2;overflow=hidden;fontSize=11;" vertex="1" parent="84cJ1SRd2D3YclpRH83m-143">
          <mxGeometry x="48" width="173" height="44" as="geometry">
            <mxRectangle width="173" height="44" as="alternateBounds" />
          </mxGeometry>
        </mxCell>
        <mxCell id="84cJ1SRd2D3YclpRH83m-146" value="" style="shape=partialRectangle;connectable=0;fillColor=none;top=0;left=0;bottom=0;right=0;align=left;spacingLeft=2;overflow=hidden;fontSize=11;" vertex="1" parent="84cJ1SRd2D3YclpRH83m-143">
          <mxGeometry x="221" width="22" height="44" as="geometry">
            <mxRectangle width="22" height="44" as="alternateBounds" />
          </mxGeometry>
        </mxCell>
        <mxCell id="84cJ1SRd2D3YclpRH83m-147" style="shape=tableRow;horizontal=0;startSize=0;swimlaneHead=0;swimlaneBody=0;fillColor=none;collapsible=0;dropTarget=0;points=[[0,0.5],[1,0.5]];portConstraint=eastwest;top=0;left=0;right=0;bottom=0;" vertex="1" parent="84cJ1SRd2D3YclpRH83m-118">
          <mxGeometry y="333" width="243" height="44" as="geometry" />
        </mxCell>
        <mxCell id="84cJ1SRd2D3YclpRH83m-148" value="string" style="shape=partialRectangle;connectable=0;fillColor=none;top=0;left=0;bottom=0;right=0;align=left;spacingLeft=2;overflow=hidden;fontSize=11;" vertex="1" parent="84cJ1SRd2D3YclpRH83m-147">
          <mxGeometry width="48" height="44" as="geometry">
            <mxRectangle width="48" height="44" as="alternateBounds" />
          </mxGeometry>
        </mxCell>
        <mxCell id="84cJ1SRd2D3YclpRH83m-149" value="teilnehmer" style="shape=partialRectangle;connectable=0;fillColor=none;top=0;left=0;bottom=0;right=0;align=left;spacingLeft=2;overflow=hidden;fontSize=11;" vertex="1" parent="84cJ1SRd2D3YclpRH83m-147">
          <mxGeometry x="48" width="173" height="44" as="geometry">
            <mxRectangle width="173" height="44" as="alternateBounds" />
          </mxGeometry>
        </mxCell>
        <mxCell id="84cJ1SRd2D3YclpRH83m-150" value="" style="shape=partialRectangle;connectable=0;fillColor=none;top=0;left=0;bottom=0;right=0;align=left;spacingLeft=2;overflow=hidden;fontSize=11;" vertex="1" parent="84cJ1SRd2D3YclpRH83m-147">
          <mxGeometry x="221" width="22" height="44" as="geometry">
            <mxRectangle width="22" height="44" as="alternateBounds" />
          </mxGeometry>
        </mxCell>
        <mxCell id="84cJ1SRd2D3YclpRH83m-151" style="shape=tableRow;horizontal=0;startSize=0;swimlaneHead=0;swimlaneBody=0;fillColor=none;collapsible=0;dropTarget=0;points=[[0,0.5],[1,0.5]];portConstraint=eastwest;top=0;left=0;right=0;bottom=0;" vertex="1" parent="84cJ1SRd2D3YclpRH83m-118">
          <mxGeometry y="377" width="243" height="44" as="geometry" />
        </mxCell>
        <mxCell id="84cJ1SRd2D3YclpRH83m-152" value="string" style="shape=partialRectangle;connectable=0;fillColor=none;top=0;left=0;bottom=0;right=0;align=left;spacingLeft=2;overflow=hidden;fontSize=11;" vertex="1" parent="84cJ1SRd2D3YclpRH83m-151">
          <mxGeometry width="48" height="44" as="geometry">
            <mxRectangle width="48" height="44" as="alternateBounds" />
          </mxGeometry>
        </mxCell>
        <mxCell id="84cJ1SRd2D3YclpRH83m-153" value="private_key" style="shape=partialRectangle;connectable=0;fillColor=none;top=0;left=0;bottom=0;right=0;align=left;spacingLeft=2;overflow=hidden;fontSize=11;" vertex="1" parent="84cJ1SRd2D3YclpRH83m-151">
          <mxGeometry x="48" width="173" height="44" as="geometry">
            <mxRectangle width="173" height="44" as="alternateBounds" />
          </mxGeometry>
        </mxCell>
        <mxCell id="84cJ1SRd2D3YclpRH83m-154" value="" style="shape=partialRectangle;connectable=0;fillColor=none;top=0;left=0;bottom=0;right=0;align=left;spacingLeft=2;overflow=hidden;fontSize=11;" vertex="1" parent="84cJ1SRd2D3YclpRH83m-151">
          <mxGeometry x="221" width="22" height="44" as="geometry">
            <mxRectangle width="22" height="44" as="alternateBounds" />
          </mxGeometry>
        </mxCell>
        <mxCell id="84cJ1SRd2D3YclpRH83m-155" style="shape=tableRow;horizontal=0;startSize=0;swimlaneHead=0;swimlaneBody=0;fillColor=none;collapsible=0;dropTarget=0;points=[[0,0.5],[1,0.5]];portConstraint=eastwest;top=0;left=0;right=0;bottom=0;" vertex="1" parent="84cJ1SRd2D3YclpRH83m-118">
          <mxGeometry y="421" width="243" height="44" as="geometry" />
        </mxCell>
        <mxCell id="84cJ1SRd2D3YclpRH83m-156" value="string" style="shape=partialRectangle;connectable=0;fillColor=none;top=0;left=0;bottom=0;right=0;align=left;spacingLeft=2;overflow=hidden;fontSize=11;" vertex="1" parent="84cJ1SRd2D3YclpRH83m-155">
          <mxGeometry width="48" height="44" as="geometry">
            <mxRectangle width="48" height="44" as="alternateBounds" />
          </mxGeometry>
        </mxCell>
        <mxCell id="84cJ1SRd2D3YclpRH83m-157" value="public_key" style="shape=partialRectangle;connectable=0;fillColor=none;top=0;left=0;bottom=0;right=0;align=left;spacingLeft=2;overflow=hidden;fontSize=11;" vertex="1" parent="84cJ1SRd2D3YclpRH83m-155">
          <mxGeometry x="48" width="173" height="44" as="geometry">
            <mxRectangle width="173" height="44" as="alternateBounds" />
          </mxGeometry>
        </mxCell>
        <mxCell id="84cJ1SRd2D3YclpRH83m-158" value="" style="shape=partialRectangle;connectable=0;fillColor=none;top=0;left=0;bottom=0;right=0;align=left;spacingLeft=2;overflow=hidden;fontSize=11;" vertex="1" parent="84cJ1SRd2D3YclpRH83m-155">
          <mxGeometry x="221" width="22" height="44" as="geometry">
            <mxRectangle width="22" height="44" as="alternateBounds" />
          </mxGeometry>
        </mxCell>
        <mxCell id="84cJ1SRd2D3YclpRH83m-163" value="rooms" style="shape=table;startSize=25;container=1;collapsible=0;childLayout=tableLayout;fixedRows=1;rowLines=1;fontStyle=1;align=center;resizeLast=1;" vertex="1" parent="1">
          <mxGeometry x="357" y="350" width="262" height="342" as="geometry" />
        </mxCell>
        <mxCell id="84cJ1SRd2D3YclpRH83m-164" style="shape=tableRow;horizontal=0;startSize=0;swimlaneHead=0;swimlaneBody=0;fillColor=none;collapsible=0;dropTarget=0;points=[[0,0.5],[1,0.5]];portConstraint=eastwest;top=0;left=0;right=0;bottom=0;" vertex="1" parent="84cJ1SRd2D3YclpRH83m-163">
          <mxGeometry y="25" width="262" height="45" as="geometry" />
        </mxCell>
        <mxCell id="84cJ1SRd2D3YclpRH83m-165" value="int" style="shape=partialRectangle;connectable=0;fillColor=none;top=0;left=0;bottom=0;right=0;align=left;spacingLeft=2;overflow=hidden;fontSize=11;" vertex="1" parent="84cJ1SRd2D3YclpRH83m-164">
          <mxGeometry width="42" height="45" as="geometry">
            <mxRectangle width="42" height="45" as="alternateBounds" />
          </mxGeometry>
        </mxCell>
        <mxCell id="84cJ1SRd2D3YclpRH83m-166" value="id" style="shape=partialRectangle;connectable=0;fillColor=none;top=0;left=0;bottom=0;right=0;align=left;spacingLeft=2;overflow=hidden;fontSize=11;" vertex="1" parent="84cJ1SRd2D3YclpRH83m-164">
          <mxGeometry x="42" width="198" height="45" as="geometry">
            <mxRectangle width="198" height="45" as="alternateBounds" />
          </mxGeometry>
        </mxCell>
        <mxCell id="84cJ1SRd2D3YclpRH83m-167" value="PK" style="shape=partialRectangle;connectable=0;fillColor=none;top=0;left=0;bottom=0;right=0;align=left;spacingLeft=2;overflow=hidden;fontSize=11;" vertex="1" parent="84cJ1SRd2D3YclpRH83m-164">
          <mxGeometry x="240" width="22" height="45" as="geometry">
            <mxRectangle width="22" height="45" as="alternateBounds" />
          </mxGeometry>
        </mxCell>
        <mxCell id="84cJ1SRd2D3YclpRH83m-168" style="shape=tableRow;horizontal=0;startSize=0;swimlaneHead=0;swimlaneBody=0;fillColor=none;collapsible=0;dropTarget=0;points=[[0,0.5],[1,0.5]];portConstraint=eastwest;top=0;left=0;right=0;bottom=0;" vertex="1" parent="84cJ1SRd2D3YclpRH83m-163">
          <mxGeometry y="70" width="262" height="45" as="geometry" />
        </mxCell>
        <mxCell id="84cJ1SRd2D3YclpRH83m-169" value="int" style="shape=partialRectangle;connectable=0;fillColor=none;top=0;left=0;bottom=0;right=0;align=left;spacingLeft=2;overflow=hidden;fontSize=11;" vertex="1" parent="84cJ1SRd2D3YclpRH83m-168">
          <mxGeometry width="42" height="45" as="geometry">
            <mxRectangle width="42" height="45" as="alternateBounds" />
          </mxGeometry>
        </mxCell>
        <mxCell id="84cJ1SRd2D3YclpRH83m-170" value="nummer" style="shape=partialRectangle;connectable=0;fillColor=none;top=0;left=0;bottom=0;right=0;align=left;spacingLeft=2;overflow=hidden;fontSize=11;" vertex="1" parent="84cJ1SRd2D3YclpRH83m-168">
          <mxGeometry x="42" width="198" height="45" as="geometry">
            <mxRectangle width="198" height="45" as="alternateBounds" />
          </mxGeometry>
        </mxCell>
        <mxCell id="84cJ1SRd2D3YclpRH83m-171" value="" style="shape=partialRectangle;connectable=0;fillColor=none;top=0;left=0;bottom=0;right=0;align=left;spacingLeft=2;overflow=hidden;fontSize=11;" vertex="1" parent="84cJ1SRd2D3YclpRH83m-168">
          <mxGeometry x="240" width="22" height="45" as="geometry">
            <mxRectangle width="22" height="45" as="alternateBounds" />
          </mxGeometry>
        </mxCell>
        <mxCell id="84cJ1SRd2D3YclpRH83m-172" style="shape=tableRow;horizontal=0;startSize=0;swimlaneHead=0;swimlaneBody=0;fillColor=none;collapsible=0;dropTarget=0;points=[[0,0.5],[1,0.5]];portConstraint=eastwest;top=0;left=0;right=0;bottom=0;" vertex="1" parent="84cJ1SRd2D3YclpRH83m-163">
          <mxGeometry y="115" width="262" height="45" as="geometry" />
        </mxCell>
        <mxCell id="84cJ1SRd2D3YclpRH83m-173" value="string" style="shape=partialRectangle;connectable=0;fillColor=none;top=0;left=0;bottom=0;right=0;align=left;spacingLeft=2;overflow=hidden;fontSize=11;" vertex="1" parent="84cJ1SRd2D3YclpRH83m-172">
          <mxGeometry width="42" height="45" as="geometry">
            <mxRectangle width="42" height="45" as="alternateBounds" />
          </mxGeometry>
        </mxCell>
        <mxCell id="84cJ1SRd2D3YclpRH83m-174" value="name" style="shape=partialRectangle;connectable=0;fillColor=none;top=0;left=0;bottom=0;right=0;align=left;spacingLeft=2;overflow=hidden;fontSize=11;" vertex="1" parent="84cJ1SRd2D3YclpRH83m-172">
          <mxGeometry x="42" width="198" height="45" as="geometry">
            <mxRectangle width="198" height="45" as="alternateBounds" />
          </mxGeometry>
        </mxCell>
        <mxCell id="84cJ1SRd2D3YclpRH83m-175" value="" style="shape=partialRectangle;connectable=0;fillColor=none;top=0;left=0;bottom=0;right=0;align=left;spacingLeft=2;overflow=hidden;fontSize=11;" vertex="1" parent="84cJ1SRd2D3YclpRH83m-172">
          <mxGeometry x="240" width="22" height="45" as="geometry">
            <mxRectangle width="22" height="45" as="alternateBounds" />
          </mxGeometry>
        </mxCell>
        <mxCell id="84cJ1SRd2D3YclpRH83m-176" style="shape=tableRow;horizontal=0;startSize=0;swimlaneHead=0;swimlaneBody=0;fillColor=none;collapsible=0;dropTarget=0;points=[[0,0.5],[1,0.5]];portConstraint=eastwest;top=0;left=0;right=0;bottom=0;" vertex="1" parent="84cJ1SRd2D3YclpRH83m-163">
          <mxGeometry y="160" width="262" height="45" as="geometry" />
        </mxCell>
        <mxCell id="84cJ1SRd2D3YclpRH83m-177" value="boolean" style="shape=partialRectangle;connectable=0;fillColor=none;top=0;left=0;bottom=0;right=0;align=left;spacingLeft=2;overflow=hidden;fontSize=11;" vertex="1" parent="84cJ1SRd2D3YclpRH83m-176">
          <mxGeometry width="42" height="45" as="geometry">
            <mxRectangle width="42" height="45" as="alternateBounds" />
          </mxGeometry>
        </mxCell>
        <mxCell id="84cJ1SRd2D3YclpRH83m-178" value="hasTouchscreen" style="shape=partialRectangle;connectable=0;fillColor=none;top=0;left=0;bottom=0;right=0;align=left;spacingLeft=2;overflow=hidden;fontSize=11;" vertex="1" parent="84cJ1SRd2D3YclpRH83m-176">
          <mxGeometry x="42" width="198" height="45" as="geometry">
            <mxRectangle width="198" height="45" as="alternateBounds" />
          </mxGeometry>
        </mxCell>
        <mxCell id="84cJ1SRd2D3YclpRH83m-179" value="" style="shape=partialRectangle;connectable=0;fillColor=none;top=0;left=0;bottom=0;right=0;align=left;spacingLeft=2;overflow=hidden;fontSize=11;" vertex="1" parent="84cJ1SRd2D3YclpRH83m-176">
          <mxGeometry x="240" width="22" height="45" as="geometry">
            <mxRectangle width="22" height="45" as="alternateBounds" />
          </mxGeometry>
        </mxCell>
        <mxCell id="84cJ1SRd2D3YclpRH83m-180" style="shape=tableRow;horizontal=0;startSize=0;swimlaneHead=0;swimlaneBody=0;fillColor=none;collapsible=0;dropTarget=0;points=[[0,0.5],[1,0.5]];portConstraint=eastwest;top=0;left=0;right=0;bottom=0;" vertex="1" parent="84cJ1SRd2D3YclpRH83m-163">
          <mxGeometry y="205" width="262" height="45" as="geometry" />
        </mxCell>
        <mxCell id="84cJ1SRd2D3YclpRH83m-181" value="boolean" style="shape=partialRectangle;connectable=0;fillColor=none;top=0;left=0;bottom=0;right=0;align=left;spacingLeft=2;overflow=hidden;fontSize=11;" vertex="1" parent="84cJ1SRd2D3YclpRH83m-180">
          <mxGeometry width="42" height="45" as="geometry">
            <mxRectangle width="42" height="45" as="alternateBounds" />
          </mxGeometry>
        </mxCell>
        <mxCell id="84cJ1SRd2D3YclpRH83m-182" value="hasWhiteboard" style="shape=partialRectangle;connectable=0;fillColor=none;top=0;left=0;bottom=0;right=0;align=left;spacingLeft=2;overflow=hidden;fontSize=11;" vertex="1" parent="84cJ1SRd2D3YclpRH83m-180">
          <mxGeometry x="42" width="198" height="45" as="geometry">
            <mxRectangle width="198" height="45" as="alternateBounds" />
          </mxGeometry>
        </mxCell>
        <mxCell id="84cJ1SRd2D3YclpRH83m-183" value="" style="shape=partialRectangle;connectable=0;fillColor=none;top=0;left=0;bottom=0;right=0;align=left;spacingLeft=2;overflow=hidden;fontSize=11;" vertex="1" parent="84cJ1SRd2D3YclpRH83m-180">
          <mxGeometry x="240" width="22" height="45" as="geometry">
            <mxRectangle width="22" height="45" as="alternateBounds" />
          </mxGeometry>
        </mxCell>
        <mxCell id="84cJ1SRd2D3YclpRH83m-184" style="shape=tableRow;horizontal=0;startSize=0;swimlaneHead=0;swimlaneBody=0;fillColor=none;collapsible=0;dropTarget=0;points=[[0,0.5],[1,0.5]];portConstraint=eastwest;top=0;left=0;right=0;bottom=0;" vertex="1" parent="84cJ1SRd2D3YclpRH83m-163">
          <mxGeometry y="250" width="262" height="45" as="geometry" />
        </mxCell>
        <mxCell id="84cJ1SRd2D3YclpRH83m-185" value="boolean" style="shape=partialRectangle;connectable=0;fillColor=none;top=0;left=0;bottom=0;right=0;align=left;spacingLeft=2;overflow=hidden;fontSize=11;" vertex="1" parent="84cJ1SRd2D3YclpRH83m-184">
          <mxGeometry width="42" height="45" as="geometry">
            <mxRectangle width="42" height="45" as="alternateBounds" />
          </mxGeometry>
        </mxCell>
        <mxCell id="84cJ1SRd2D3YclpRH83m-186" value="hasBeamer" style="shape=partialRectangle;connectable=0;fillColor=none;top=0;left=0;bottom=0;right=0;align=left;spacingLeft=2;overflow=hidden;fontSize=11;" vertex="1" parent="84cJ1SRd2D3YclpRH83m-184">
          <mxGeometry x="42" width="198" height="45" as="geometry">
            <mxRectangle width="198" height="45" as="alternateBounds" />
          </mxGeometry>
        </mxCell>
        <mxCell id="84cJ1SRd2D3YclpRH83m-187" value="" style="shape=partialRectangle;connectable=0;fillColor=none;top=0;left=0;bottom=0;right=0;align=left;spacingLeft=2;overflow=hidden;fontSize=11;" vertex="1" parent="84cJ1SRd2D3YclpRH83m-184">
          <mxGeometry x="240" width="22" height="45" as="geometry">
            <mxRectangle width="22" height="45" as="alternateBounds" />
          </mxGeometry>
        </mxCell>
        <mxCell id="84cJ1SRd2D3YclpRH83m-188" style="shape=tableRow;horizontal=0;startSize=0;swimlaneHead=0;swimlaneBody=0;fillColor=none;collapsible=0;dropTarget=0;points=[[0,0.5],[1,0.5]];portConstraint=eastwest;top=0;left=0;right=0;bottom=0;" vertex="1" parent="84cJ1SRd2D3YclpRH83m-163">
          <mxGeometry y="295" width="262" height="45" as="geometry" />
        </mxCell>
        <mxCell id="84cJ1SRd2D3YclpRH83m-189" value="boolean" style="shape=partialRectangle;connectable=0;fillColor=none;top=0;left=0;bottom=0;right=0;align=left;spacingLeft=2;overflow=hidden;fontSize=11;" vertex="1" parent="84cJ1SRd2D3YclpRH83m-188">
          <mxGeometry width="42" height="45" as="geometry">
            <mxRectangle width="42" height="45" as="alternateBounds" />
          </mxGeometry>
        </mxCell>
        <mxCell id="84cJ1SRd2D3YclpRH83m-190" value="hasCamera" style="shape=partialRectangle;connectable=0;fillColor=none;top=0;left=0;bottom=0;right=0;align=left;spacingLeft=2;overflow=hidden;fontSize=11;" vertex="1" parent="84cJ1SRd2D3YclpRH83m-188">
          <mxGeometry x="42" width="198" height="45" as="geometry">
            <mxRectangle width="198" height="45" as="alternateBounds" />
          </mxGeometry>
        </mxCell>
        <mxCell id="84cJ1SRd2D3YclpRH83m-191" value="" style="shape=partialRectangle;connectable=0;fillColor=none;top=0;left=0;bottom=0;right=0;align=left;spacingLeft=2;overflow=hidden;fontSize=11;" vertex="1" parent="84cJ1SRd2D3YclpRH83m-188">
          <mxGeometry x="240" width="22" height="45" as="geometry">
            <mxRectangle width="22" height="45" as="alternateBounds" />
          </mxGeometry>
        </mxCell>
        <mxCell id="84cJ1SRd2D3YclpRH83m-192" value="hat" style="startArrow=ERmandOne;startSize=10;;endArrow=ERzeroToMany;endSize=10;;exitX=0.5;exitY=1;entryX=0;entryY=0.11;rounded=0;edgeStyle=orthogonalEdgeStyle;" edge="1" parent="1" source="84cJ1SRd2D3YclpRH83m-101" target="84cJ1SRd2D3YclpRH83m-118">
          <mxGeometry relative="1" as="geometry" />
        </mxCell>
        <mxCell id="84cJ1SRd2D3YclpRH83m-193" value="belegt" style="startArrow=ERmandOne;startSize=10;;endArrow=ERzeroToMany;endSize=10;;exitX=0.5;exitY=1;entryX=1;entryY=0.11;rounded=0;edgeStyle=orthogonalEdgeStyle;" edge="1" parent="1" source="84cJ1SRd2D3YclpRH83m-163" target="84cJ1SRd2D3YclpRH83m-118">
          <mxGeometry relative="1" as="geometry" />
        </mxCell>
      </root>
    </mxGraphModel>
  </diagram>
</mxfile>
